<?xml version="1.0" encoding="UTF-8"?>
<svg width="500" height="500" viewBox="0 0 500 500" fill="none" xmlns="http://www.w3.org/2000/svg">
  <rect width="500" height="500" fill="#E2E8F0"/>
  <path d="M250 200C261.046 200 270 191.046 270 180C270 168.954 261.046 160 250 160C238.954 160 230 168.954 230 180C230 191.046 238.954 200 250 200Z" fill="#94A3B8"/>
  <path d="M300 300C300 322.091 282.091 340 260 340H240C217.909 340 200 322.091 200 300V260C200 237.909 217.909 220 240 220H260C282.091 220 300 237.909 300 260V300Z" fill="#94A3B8"/>
</svg> 